<svg width="67" height="55" viewBox="0 0 67 55" fill="none" xmlns="http://www.w3.org/2000/svg">
<g filter="url(#filter0_dd)">
<path d="M8.48764 39.2777C8.71752 39.5633 8.83998 39.9211 8.83356 40.2883C8.84529 40.5278 8.8032 40.7669 8.71042 40.9879C8.61763 41.2089 8.47652 41.4061 8.29754 41.5649C7.85095 41.9036 7.29769 42.0691 6.73933 42.0311H4V35.6262H6.68323C7.21289 35.5908 7.73833 35.7412 8.16977 36.0517C8.34305 36.1973 8.48026 36.3814 8.57058 36.5893C8.6609 36.7973 8.70185 37.0235 8.69021 37.2501C8.70595 37.6034 8.59543 37.9508 8.37857 38.2295C8.17037 38.4839 7.88265 38.6604 7.56206 38.7301C7.92548 38.7967 8.25352 38.9907 8.48764 39.2777ZM5.27461 38.3108H6.42146C6.6821 38.3302 6.94097 38.2546 7.1507 38.098C7.23681 38.0197 7.3038 37.9225 7.34649 37.814C7.38918 37.7055 7.40643 37.5885 7.39689 37.4722C7.40499 37.3564 7.38738 37.2402 7.34535 37.1319C7.30332 37.0237 7.2379 36.9262 7.15381 36.8465C6.93781 36.6854 6.6709 36.6087 6.40276 36.6306H5.27461V38.3108ZM7.26289 40.767C7.35493 40.6868 7.42729 40.5864 7.47432 40.4735C7.52134 40.3606 7.54178 40.2383 7.53402 40.1162C7.54104 39.9927 7.51967 39.8692 7.47158 39.7552C7.42349 39.6413 7.34995 39.54 7.25666 39.4591C7.03228 39.2921 6.75632 39.2101 6.47755 39.2276H5.27461V40.9892H6.49313C6.7674 41.0051 7.03889 40.9267 7.26289 40.767Z" fill="#AFB1B8"/>
<path d="M13.9724 42.0312L12.4797 39.528H11.9187V42.0312H10.6348V35.6262H13.0656C13.6783 35.5833 14.284 35.7781 14.7578 36.1706C15.0976 36.5183 15.3025 36.9763 15.3357 37.4622C15.3688 37.9482 15.228 38.43 14.9385 38.8209C14.6386 39.1658 14.229 39.3958 13.7792 39.4717L15.3686 42.0312H13.9724ZM11.9187 38.655H12.969C13.6982 38.655 14.0628 38.3317 14.0628 37.6851C14.0703 37.553 14.0503 37.4208 14.0041 37.297C13.958 37.1731 13.8867 37.0602 13.7948 36.9654C13.5644 36.773 13.2676 36.6796 12.969 36.7057H11.9063L11.9187 38.655Z" fill="#AFB1B8"/>
<path d="M20.9908 40.7421H18.4322L17.9803 42.0312H16.634L18.9838 35.6982H20.4392L22.7796 42.0312H21.4333L20.9908 40.7421ZM20.648 39.7721L19.7131 37.0687L18.7781 39.7721H20.648Z" fill="#AFB1B8"/>
<path d="M29.7759 42.0312H28.5013L25.6436 37.6757V42.0312H24.3721V35.6262H25.6436L28.5013 40.0068V35.6262H29.7759V42.0312Z" fill="#AFB1B8"/>
<path d="M37.0497 40.4981C36.7862 40.9817 36.3846 41.375 35.8966 41.6276C35.3418 41.909 34.7261 42.0477 34.1047 42.0313H31.8359V35.6263H34.1047C34.725 35.61 35.3399 35.7453 35.8966 36.0206C36.3845 36.2674 36.7865 36.6569 37.0497 37.1376C37.3121 37.6585 37.4488 38.2341 37.4488 38.8178C37.4488 39.4016 37.3121 39.9772 37.0497 40.4981ZM35.5912 40.3448C35.955 39.9193 36.155 39.377 36.155 38.8163C36.155 38.2555 35.955 37.7133 35.5912 37.2878C35.1515 36.9024 34.5781 36.7067 33.9956 36.7433H33.1106V40.8892H33.9956C34.5781 40.9258 35.1515 40.7302 35.5912 40.3448Z" fill="#AFB1B8"/>
<path d="M21.7886 0C21.7886 0 38.2401 6.236 37.8911 15.2599V30.5229C37.8911 30.5229 21.452 24.2838 21.7948 15.2599L21.7886 0Z" fill="#AFB1B8"/>
<path d="M52.5476 26.9497C55.6546 24.8029 59.2485 23.4732 63.0001 23.0824V18.3044C58.6774 19.9772 55.0104 23.0102 52.5476 26.9497Z" fill="#AFB1B8"/>
<path d="M50.6809 28.3889C53.2239 23.2477 57.6326 19.2804 63.0001 17.303V3.53564C63.0001 3.53564 39.5708 12.4187 40.0663 25.2693V46.9999C40.0663 46.9999 41.1103 46.6025 42.7527 45.8578C42.7527 45.1632 42.7527 44.4623 42.8275 43.7583C43.3124 37.7925 46.1372 32.2641 50.6809 28.3889Z" fill="#AFB1B8"/>
<path d="M48.4525 36.4616C48.5756 34.9545 48.8502 33.4638 49.2721 32.0122C46.4429 35.3588 44.7296 39.5116 44.3731 43.8866C44.3388 44.2996 44.3201 44.7126 44.3108 45.1382C45.6415 44.4967 47.1904 43.6957 48.8171 42.7539C48.402 40.684 48.2792 38.5658 48.4525 36.4616Z" fill="#AFB1B8"/>
<path d="M49.3843 36.5398C49.2284 38.4436 49.3258 40.3597 49.6741 42.2377C56.0753 38.3922 63.268 32.4503 62.9906 25.2693V24.6436C58.4172 25.1573 54.1384 27.1646 50.8116 30.357C50.0327 32.3354 49.5517 34.4192 49.3843 36.5398Z" fill="#AFB1B8"/>
<rect x="4" width="59" height="47" stroke="#AFB1B8"/>
</g>
<defs>
<filter id="filter0_dd" x="0" y="0" width="67" height="55" filterUnits="userSpaceOnUse" color-interpolation-filters="sRGB">
<feFlood flood-opacity="0" result="BackgroundImageFix"/>
<feColorMatrix in="SourceAlpha" type="matrix" values="0 0 0 0 0 0 0 0 0 0 0 0 0 0 0 0 0 0 127 0"/>
<feOffset dy="4"/>
<feGaussianBlur stdDeviation="2"/>
<feColorMatrix type="matrix" values="0 0 0 0 0 0 0 0 0 0 0 0 0 0 0 0 0 0 0.25 0"/>
<feBlend mode="normal" in2="BackgroundImageFix" result="effect1_dropShadow"/>
<feColorMatrix in="SourceAlpha" type="matrix" values="0 0 0 0 0 0 0 0 0 0 0 0 0 0 0 0 0 0 127 0"/>
<feOffset dy="4"/>
<feGaussianBlur stdDeviation="2"/>
<feColorMatrix type="matrix" values="0 0 0 0 0 0 0 0 0 0 0 0 0 0 0 0 0 0 0.25 0"/>
<feBlend mode="normal" in2="effect1_dropShadow" result="effect2_dropShadow"/>
<feBlend mode="normal" in="SourceGraphic" in2="effect2_dropShadow" result="shape"/>
</filter>
</defs>
</svg>
